<svg width="443" height="185" viewBox="0 0 443 185" fill="none" xmlns="http://www.w3.org/2000/svg">
<path d="M99.5704 148.704V120.089H106.512V142.684H117.563V148.704H99.5704Z" fill="white"/>
<path d="M228.932 148.704L226.717 143.09H215.659L213.56 148.704H206.056L218.039 120.089H224.734L236.594 148.704H228.932ZM221.263 127.731L217.635 137.551H224.817L221.263 127.731Z" fill="white"/>
<path d="M349.041 140.375C349.041 141.935 348.732 143.254 348.115 144.313C347.497 145.378 346.674 146.23 345.652 146.876C344.63 147.522 343.464 147.989 342.161 148.271C340.857 148.553 339.52 148.697 338.148 148.697H326.768V120.082H338.141C339.245 120.082 340.37 120.199 341.53 120.426C342.682 120.653 343.732 121.044 344.678 121.601C345.618 122.151 346.386 122.9 346.976 123.841C347.566 124.783 347.861 125.985 347.861 127.435C347.861 129.023 347.429 130.335 346.571 131.373C345.707 132.411 344.582 133.16 343.183 133.613V133.696C343.992 133.833 344.747 134.08 345.46 134.445C346.173 134.809 346.791 135.276 347.319 135.84C347.847 136.403 348.259 137.063 348.567 137.819C348.883 138.588 349.041 139.434 349.041 140.375ZM341.214 128.377C341.214 127.408 340.844 126.7 340.103 126.253C339.362 125.807 338.265 125.587 336.817 125.587H333.429V131.49H337.14C338.429 131.49 339.431 131.229 340.144 130.699C340.857 130.17 341.214 129.401 341.214 128.377ZM342.14 139.729C342.14 138.547 341.694 137.723 340.809 137.262C339.925 136.802 338.738 136.575 337.263 136.575H333.429V143.124H337.304C337.839 143.124 338.402 143.076 338.978 142.98C339.554 142.883 340.082 142.718 340.549 142.471C341.015 142.231 341.399 141.887 341.694 141.44C341.989 141.007 342.14 140.43 342.14 139.729Z" fill="white"/>
<path d="M348.746 12H336.762V107.383H348.746V12Z" fill="white"/>
<path d="M286.901 95.5219H325.149V107.383H274.925V12H286.901V95.5219Z" fill="white"/>
<path fill-rule="evenodd" clip-rule="evenodd" d="M84.8432 172C159.762 172 195.908 94.0702 200.958 82.2544L242.059 82.2919C247.169 94.2344 283.317 172 358.157 172C427.869 172 433 114.179 433 104.18C433 80.2384 415.426 59.327 391.013 60.1242C367.204 60.9007 360.901 79.4963 360.901 88.4642C360.901 97.9475 366.999 107.417 377.912 107.417C387.872 107.417 392.934 100.098 392.351 93.7006C392.077 90.7182 389.943 85.846 384.051 85.846C380.073 85.846 378.543 89.2613 378.618 91.1649C378.701 93.302 380.443 94.862 381.959 94.862C382.823 94.862 384.408 94.4909 384.394 92.7179C384.38 90.945 382.974 91.0618 382.974 91.0618C382.974 91.0618 384.175 91.1855 384.271 92.3262C384.332 93.1096 384.01 94.5734 382.103 94.5734C379.593 94.5734 378.893 92.0788 378.968 90.8556C379.112 88.423 381.705 86.3133 384.113 86.3889C391 86.595 392.015 93.2746 390.856 97.0267C388.695 104.009 381.376 106.647 375.71 105.672C371.354 104.923 362.684 101.26 362.684 89.0414C362.684 67.1817 382.851 62.3576 392.571 62.1652C409.109 61.8353 430.345 76.5757 430.345 104.036C430.345 111.437 427.526 166.853 357.574 166.853C295.384 166.853 259.87 94.7589 254.703 83.5028C249.536 72.2467 243.46 55.1628 239.969 45.7207C236.855 37.2957 228.287 12 228.287 12H215.062C215.062 12 205.754 38.567 202.448 47.4181C199.523 55.2606 191.056 76.7156 188.88 82.2218C186.95 86.6431 151.023 166.853 85.4262 166.853C15.4738 166.853 12.6615 111.437 12.6615 104.036C12.6615 76.5757 33.8982 61.8354 50.4363 62.1652C60.1561 62.3576 80.3228 67.1817 80.3228 89.0415C80.3228 101.26 71.6525 104.923 67.2968 105.672C61.6309 106.647 54.3119 104.009 52.1512 97.0267C50.9919 93.2746 52.0071 86.5951 58.894 86.3889C61.3016 86.3133 63.8945 88.423 64.0385 90.8557C64.114 92.0789 63.4143 94.5734 60.9038 94.5734C58.9969 94.5734 58.6745 93.1097 58.7362 92.3263C58.8322 91.1855 60.0326 91.0618 60.0326 91.0618C60.0326 91.0618 58.6264 90.945 58.6127 92.718C58.599 94.4909 60.1835 94.862 61.0478 94.862C62.5638 94.862 64.306 93.3021 64.3884 91.1649C64.4638 89.2614 62.9342 85.846 58.9557 85.846C53.0635 85.846 50.9302 90.7182 50.6558 93.7007C50.0727 100.098 55.135 107.417 65.0949 107.417C76.0082 107.417 82.1063 97.9475 82.1063 88.4642C82.1063 79.4963 75.8024 60.9008 51.9934 60.1242C27.5738 59.3133 10 80.2247 10 104.167C10 114.179 15.1309 172 84.8432 172ZM206.056 70.5354H236.45L221.318 27.4963L206.056 70.5354Z" fill="white"/>
<path d="M99.6802 12H129.093C134.581 12 140.068 12.9002 145.556 14.6938C151.044 16.4943 156.003 19.3186 160.441 23.1807C164.879 27.0427 168.466 31.9837 171.21 37.9967C173.954 44.0165 175.326 51.2458 175.326 59.6846C175.326 67.8553 173.954 74.9335 171.21 80.9052C168.466 86.8769 164.879 91.8179 160.441 95.7212C156.003 99.6313 151.044 102.545 145.556 104.476C140.068 106.407 134.581 107.369 129.093 107.369H99.6802V12ZM111.664 95.6593H126.672C131.837 95.6593 136.611 94.8484 141.015 93.2335C145.412 91.6186 149.205 89.2821 152.388 86.231C155.578 83.1798 158.054 79.4071 159.83 74.9129C161.607 70.4255 162.492 65.3471 162.492 59.6914C162.492 53.7609 161.6 48.5589 159.83 44.0646C158.054 39.5772 155.571 35.8251 152.388 32.8152C149.198 29.8053 145.405 27.5169 141.015 25.9432C136.618 24.3695 131.837 23.5861 126.672 23.5861H111.664V95.6593Z" fill="white"/>
</svg>
