<svg width="423" height="212" viewBox="0 0 423 212" fill="none" xmlns="http://www.w3.org/2000/svg">
<path d="M89.5704 188.704V160.089H96.5121V182.684H107.563V188.704H89.5704Z" fill="#1E5779"/>
<path d="M218.932 188.704L216.717 183.09H205.659L203.56 188.704H196.056L208.039 160.089H214.734L226.594 188.704H218.932ZM211.263 167.731L207.635 177.551H214.817L211.263 167.731Z" fill="#1E5779"/>
<path d="M339.041 180.375C339.041 181.935 338.732 183.254 338.115 184.313C337.497 185.378 336.674 186.23 335.652 186.876C334.63 187.522 333.464 187.989 332.161 188.271C330.857 188.553 329.52 188.697 328.148 188.697H316.768V160.082H328.141C329.245 160.082 330.37 160.199 331.53 160.426C332.682 160.653 333.732 161.044 334.678 161.601C335.618 162.151 336.386 162.9 336.976 163.841C337.566 164.783 337.861 165.985 337.861 167.435C337.861 169.023 337.429 170.335 336.571 171.373C335.707 172.411 334.582 173.16 333.183 173.613V173.696C333.992 173.833 334.747 174.08 335.46 174.445C336.173 174.809 336.791 175.276 337.319 175.84C337.847 176.403 338.259 177.063 338.567 177.819C338.883 178.588 339.041 179.434 339.041 180.375ZM331.214 168.377C331.214 167.408 330.844 166.7 330.103 166.253C329.362 165.807 328.265 165.587 326.817 165.587H323.429V171.49H327.14C328.429 171.49 329.431 171.229 330.144 170.699C330.857 170.17 331.214 169.401 331.214 168.377ZM332.14 179.729C332.14 178.547 331.694 177.723 330.809 177.262C329.925 176.802 328.738 176.575 327.263 176.575H323.429V183.124H327.304C327.839 183.124 328.402 183.076 328.978 182.98C329.554 182.883 330.082 182.718 330.549 182.471C331.015 182.231 331.399 181.887 331.694 181.44C331.989 181.007 332.14 180.43 332.14 179.729Z" fill="#1E5779"/>
<path d="M338.746 52H326.762V147.383H338.746V52Z" fill="#1E5779"/>
<path d="M276.901 135.522H315.149V147.383H264.925V52H276.901V135.522Z" fill="#1E5779"/>
<path fill-rule="evenodd" clip-rule="evenodd" d="M74.8432 212C149.762 212 185.908 134.07 190.958 122.254L232.059 122.292C237.169 134.234 273.317 212 348.157 212C417.869 212 423 154.179 423 144.18C423 120.238 405.426 99.327 381.013 100.124C357.204 100.901 350.901 119.496 350.901 128.464C350.901 137.948 356.999 147.417 367.912 147.417C377.872 147.417 382.934 140.098 382.351 133.701C382.077 130.718 379.943 125.846 374.051 125.846C370.073 125.846 368.543 129.261 368.618 131.165C368.701 133.302 370.443 134.862 371.959 134.862C372.823 134.862 374.408 134.491 374.394 132.718C374.38 130.945 372.974 131.062 372.974 131.062C372.974 131.062 374.175 131.185 374.271 132.326C374.332 133.11 374.01 134.573 372.103 134.573C369.593 134.573 368.893 132.079 368.968 130.856C369.112 128.423 371.705 126.313 374.113 126.389C381 126.595 382.015 133.275 380.856 137.027C378.695 144.009 371.376 146.647 365.71 145.672C361.354 144.923 352.684 141.26 352.684 129.041C352.684 107.182 372.851 102.358 382.571 102.165C399.109 101.835 420.345 116.576 420.345 144.036C420.345 151.437 417.526 206.853 347.574 206.853C285.384 206.853 249.87 134.759 244.703 123.503C239.536 112.247 233.46 95.1628 229.969 85.7207C226.855 77.2957 218.287 52 218.287 52H205.062C205.062 52 195.754 78.567 192.448 87.4181C189.523 95.2606 181.056 116.716 178.88 122.222C176.95 126.643 141.023 206.853 75.4262 206.853C5.47381 206.853 2.66146 151.437 2.66146 144.036C2.66146 116.576 23.8982 101.835 40.4363 102.165C50.1561 102.358 70.3228 107.182 70.3228 129.041C70.3228 141.26 61.6525 144.923 57.2968 145.672C51.6309 146.647 44.3119 144.009 42.1512 137.027C40.9919 133.275 42.0071 126.595 48.894 126.389C51.3016 126.313 53.8945 128.423 54.0385 130.856C54.114 132.079 53.4143 134.573 50.9038 134.573C48.9969 134.573 48.6745 133.11 48.7362 132.326C48.8322 131.186 50.0326 131.062 50.0326 131.062C50.0326 131.062 48.6264 130.945 48.6127 132.718C48.599 134.491 50.1835 134.862 51.0478 134.862C52.5638 134.862 54.306 133.302 54.3884 131.165C54.4638 129.261 52.9342 125.846 48.9557 125.846C43.0635 125.846 40.9302 130.718 40.6558 133.701C40.0727 140.098 45.135 147.417 55.0949 147.417C66.0082 147.417 72.1063 137.948 72.1063 128.464C72.1063 119.496 65.8024 100.901 41.9934 100.124C17.5738 99.3133 0 120.225 0 144.167C0 154.179 5.13085 212 74.8432 212ZM196.056 110.535H226.45L211.318 67.4963L196.056 110.535Z" fill="#1E5779"/>
<path d="M89.6802 52H119.093C124.581 52 130.068 52.9002 135.556 54.6938C141.044 56.4943 146.003 59.3186 150.441 63.1807C154.879 67.0427 158.466 71.9837 161.21 77.9967C163.954 84.0165 165.326 91.2458 165.326 99.6846C165.326 107.855 163.954 114.933 161.21 120.905C158.466 126.877 154.879 131.818 150.441 135.721C146.003 139.631 141.044 142.545 135.556 144.476C130.068 146.407 124.581 147.369 119.093 147.369H89.6802V52ZM101.664 135.659H116.672C121.837 135.659 126.611 134.848 131.015 133.234C135.412 131.619 139.205 129.282 142.388 126.231C145.578 123.18 148.054 119.407 149.83 114.913C151.607 110.425 152.492 105.347 152.492 99.6914C152.492 93.7609 151.6 88.5589 149.83 84.0646C148.054 79.5772 145.571 75.8251 142.388 72.8152C139.198 69.8053 135.405 67.5169 131.015 65.9432C126.618 64.3695 121.837 63.5861 116.672 63.5861H101.664V135.659Z" fill="#1E5779"/>
<path d="M17.3238 19.7227H21.5621C23.5282 19.7227 24.9475 20.0091 25.8199 20.582C26.6988 21.1549 27.1383 22.0599 27.1383 23.2969C27.1383 24.1302 26.9234 24.8236 26.4937 25.377C26.0641 25.9303 25.4456 26.2786 24.6383 26.4219V26.5195C25.6409 26.7083 26.3766 27.0827 26.8453 27.6426C27.3206 28.196 27.5582 28.9479 27.5582 29.8984C27.5582 31.181 27.109 32.1868 26.2105 32.916C25.3186 33.6387 24.0751 34 22.4801 34H17.3238V19.7227ZM19.6578 25.6211H21.9039C22.8805 25.6211 23.5934 25.4681 24.0426 25.1621C24.4918 24.8496 24.7164 24.3223 24.7164 23.5801C24.7164 22.9095 24.4723 22.4245 23.984 22.125C23.5022 21.8255 22.734 21.6758 21.6793 21.6758H19.6578V25.6211ZM19.6578 27.5156V32.0371H22.1383C23.1148 32.0371 23.8505 31.8516 24.3453 31.4805C24.8466 31.1029 25.0973 30.5104 25.0973 29.7031C25.0973 28.9609 24.8434 28.4108 24.3355 28.0527C23.8277 27.6947 23.0562 27.5156 22.0211 27.5156H19.6578ZM42.9184 19.7227V28.9609C42.9184 30.0156 42.6905 30.9401 42.2348 31.7344C41.7855 32.5221 41.1312 33.1309 40.2719 33.5605C39.419 33.9837 38.3969 34.1953 37.2055 34.1953C35.4346 34.1953 34.0577 33.7266 33.0746 32.7891C32.0915 31.8516 31.6 30.5625 31.6 28.9219V19.7227H33.9437V28.7559C33.9437 29.9342 34.2172 30.8034 34.7641 31.3633C35.3109 31.9232 36.1508 32.2031 37.2836 32.2031C39.4841 32.2031 40.5844 31.0475 40.5844 28.7363V19.7227H42.9184ZM47.7707 34V19.7227H50.1047V34H47.7707ZM55.084 34V19.7227H57.418V31.998H63.4629V34H55.084ZM72.0555 34H69.7215V21.7246H65.5223V19.7227H76.2547V21.7246H72.0555V34ZM86.0473 34V19.7227H88.3812V34H86.0473ZM105.255 34H102.394L95.3723 22.623H95.2941L95.343 23.2578C95.4341 24.4688 95.4797 25.5755 95.4797 26.5781V34H93.3605V19.7227H96.1926L103.195 31.041H103.253C103.24 30.8913 103.214 30.3477 103.175 29.4102C103.136 28.4661 103.116 27.7305 103.116 27.2031V19.7227H105.255V34ZM122.694 21.5195C121.353 21.5195 120.298 21.9948 119.53 22.9453C118.762 23.8958 118.378 25.2077 118.378 26.8809C118.378 28.6322 118.746 29.957 119.481 30.8555C120.223 31.7539 121.294 32.2031 122.694 32.2031C123.3 32.2031 123.886 32.1445 124.452 32.0273C125.018 31.9036 125.608 31.7474 126.22 31.5586V33.5605C125.1 33.9837 123.83 34.1953 122.411 34.1953C120.321 34.1953 118.716 33.5638 117.596 32.3008C116.477 31.0312 115.917 29.2181 115.917 26.8613C115.917 25.377 116.187 24.0781 116.727 22.9648C117.274 21.8516 118.062 20.9987 119.091 20.4062C120.119 19.8138 121.327 19.5176 122.714 19.5176C124.172 19.5176 125.52 19.8236 126.757 20.4355L125.917 22.3789C125.435 22.151 124.924 21.9525 124.384 21.7832C123.85 21.6074 123.287 21.5195 122.694 21.5195ZM143.171 26.8418C143.171 29.166 142.589 30.9727 141.423 32.2617C140.265 33.5508 138.621 34.1953 136.492 34.1953C134.337 34.1953 132.68 33.5573 131.521 32.2812C130.369 30.9987 129.793 29.179 129.793 26.8223C129.793 24.4655 130.372 22.6556 131.531 21.3926C132.696 20.1296 134.356 19.498 136.511 19.498C138.634 19.498 140.274 20.1393 141.433 21.4219C142.592 22.7044 143.171 24.5111 143.171 26.8418ZM132.273 26.8418C132.273 28.5996 132.628 29.9342 133.337 30.8457C134.047 31.7507 135.099 32.2031 136.492 32.2031C137.879 32.2031 138.923 31.7539 139.627 30.8555C140.336 29.957 140.691 28.6191 140.691 26.8418C140.691 25.0905 140.339 23.7624 139.636 22.8574C138.94 21.9525 137.898 21.5 136.511 21.5C135.112 21.5 134.054 21.9525 133.337 22.8574C132.628 23.7624 132.273 25.0905 132.273 26.8418ZM147.438 34V19.7227H149.772V31.998H155.817V34H147.438ZM159.478 34V19.7227H161.812V31.998H167.857V34H159.478ZM180.375 34L178.949 30.0352H173.49L172.094 34H169.633L174.975 19.6641H177.514L182.855 34H180.375ZM178.334 28.0234L176.996 24.1367C176.898 23.8763 176.762 23.4661 176.586 22.9062C176.417 22.3464 176.299 21.9362 176.234 21.6758C176.059 22.4766 175.801 23.3522 175.463 24.3027L174.174 28.0234H178.334ZM185.94 19.7227H190.179C192.145 19.7227 193.564 20.0091 194.436 20.582C195.315 21.1549 195.755 22.0599 195.755 23.2969C195.755 24.1302 195.54 24.8236 195.11 25.377C194.68 25.9303 194.062 26.2786 193.255 26.4219V26.5195C194.257 26.7083 194.993 27.0827 195.462 27.6426C195.937 28.196 196.175 28.9479 196.175 29.8984C196.175 31.181 195.725 32.1868 194.827 32.916C193.935 33.6387 192.692 34 191.096 34H185.94V19.7227ZM188.274 25.6211H190.52C191.497 25.6211 192.21 25.4681 192.659 25.1621C193.108 24.8496 193.333 24.3223 193.333 23.5801C193.333 22.9095 193.089 22.4245 192.6 22.125C192.119 21.8255 191.35 21.6758 190.296 21.6758H188.274V25.6211ZM188.274 27.5156V32.0371H190.755C191.731 32.0371 192.467 31.8516 192.962 31.4805C193.463 31.1029 193.714 30.5104 193.714 29.7031C193.714 28.9609 193.46 28.4108 192.952 28.0527C192.444 27.6947 191.673 27.5156 190.637 27.5156H188.274ZM213.019 26.8418C213.019 29.166 212.436 30.9727 211.271 32.2617C210.112 33.5508 208.468 34.1953 206.339 34.1953C204.184 34.1953 202.528 33.5573 201.369 32.2812C200.216 30.9987 199.64 29.179 199.64 26.8223C199.64 24.4655 200.22 22.6556 201.379 21.3926C202.544 20.1296 204.204 19.498 206.359 19.498C208.481 19.498 210.122 20.1393 211.281 21.4219C212.44 22.7044 213.019 24.5111 213.019 26.8418ZM202.121 26.8418C202.121 28.5996 202.476 29.9342 203.185 30.8457C203.895 31.7507 204.946 32.2031 206.339 32.2031C207.726 32.2031 208.771 31.7539 209.474 30.8555C210.184 29.957 210.539 28.6191 210.539 26.8418C210.539 25.0905 210.187 23.7624 209.484 22.8574C208.787 21.9525 207.746 21.5 206.359 21.5C204.959 21.5 203.901 21.9525 203.185 22.8574C202.476 23.7624 202.121 25.0905 202.121 26.8418ZM219.62 26.3633H221.241C222.328 26.3633 223.116 26.1615 223.604 25.7578C224.092 25.3542 224.336 24.7552 224.336 23.9609C224.336 23.1536 224.073 22.5742 223.545 22.2227C223.018 21.8711 222.224 21.6953 221.162 21.6953H219.62V26.3633ZM219.62 28.2969V34H217.286V19.7227H221.319C223.161 19.7227 224.525 20.0677 225.411 20.7578C226.296 21.4479 226.739 22.4896 226.739 23.8828C226.739 25.6602 225.814 26.9264 223.965 27.6816L227.998 34H225.342L221.924 28.2969H219.62ZM240.136 34L238.71 30.0352H233.251L231.855 34H229.394L234.736 19.6641H237.275L242.616 34H240.136ZM238.095 28.0234L236.757 24.1367C236.659 23.8763 236.523 23.4661 236.347 22.9062C236.178 22.3464 236.06 21.9362 235.995 21.6758C235.82 22.4766 235.562 23.3522 235.224 24.3027L233.935 28.0234H238.095ZM250.633 34H248.299V21.7246H244.1V19.7227H254.832V21.7246H250.633V34ZM258.229 34V19.7227H260.563V34H258.229ZM278.218 26.8418C278.218 29.166 277.636 30.9727 276.47 32.2617C275.311 33.5508 273.668 34.1953 271.539 34.1953C269.384 34.1953 267.727 33.5573 266.568 32.2812C265.416 30.9987 264.839 29.179 264.839 26.8223C264.839 24.4655 265.419 22.6556 266.578 21.3926C267.743 20.1296 269.403 19.498 271.558 19.498C273.681 19.498 275.321 20.1393 276.48 21.4219C277.639 22.7044 278.218 24.5111 278.218 26.8418ZM267.32 26.8418C267.32 28.5996 267.675 29.9342 268.384 30.8457C269.094 31.7507 270.145 32.2031 271.539 32.2031C272.925 32.2031 273.97 31.7539 274.673 30.8555C275.383 29.957 275.738 28.6191 275.738 26.8418C275.738 25.0905 275.386 23.7624 274.683 22.8574C273.987 21.9525 272.945 21.5 271.558 21.5C270.158 21.5 269.101 21.9525 268.384 22.8574C267.675 23.7624 267.32 25.0905 267.32 26.8418ZM294.379 34H291.518L284.496 22.623H284.418L284.467 23.2578C284.558 24.4688 284.604 25.5755 284.604 26.5781V34H282.485V19.7227H285.317L292.319 31.041H292.377C292.364 30.8913 292.338 30.3477 292.299 29.4102C292.26 28.4661 292.241 27.7305 292.241 27.2031V19.7227H294.379V34ZM318.918 34H316.379L313.957 25.4844C313.853 25.1133 313.723 24.5794 313.566 23.8828C313.41 23.1797 313.316 22.6914 313.283 22.418C313.218 22.8346 313.111 23.375 312.961 24.0391C312.818 24.7031 312.697 25.1979 312.6 25.5234L310.236 34H307.697L305.852 26.8516L303.977 19.7227H306.359L308.4 28.043C308.719 29.3776 308.947 30.556 309.084 31.5781C309.156 31.0247 309.263 30.4062 309.406 29.7227C309.549 29.0391 309.68 28.4857 309.797 28.0625L312.121 19.7227H314.436L316.818 28.1016C317.046 28.8763 317.287 30.0352 317.541 31.5781C317.639 30.6471 317.873 29.4622 318.244 28.0234L320.275 19.7227H322.639L318.918 34ZM325.87 34V19.7227H328.204V34H325.87ZM338.115 34H335.781V21.7246H331.582V19.7227H342.314V21.7246H338.115V34ZM356.971 34H354.627V27.5645H348.045V34H345.711V19.7227H348.045V25.5625H354.627V19.7227H356.971V34ZM373.258 34H370.924V21.7246H366.725V19.7227H377.457V21.7246H373.258V34ZM392.114 34H389.77V27.5645H383.188V34H380.854V19.7227H383.188V25.5625H389.77V19.7227H392.114V34ZM405.15 34H397.074V19.7227H405.15V21.6953H399.408V25.582H404.789V27.5352H399.408V32.0176H405.15V34Z" fill="#1E5779"/>
</svg>
